<?xml version="1.0" encoding="UTF-8" standalone="no"?>
<!DOCTYPE svg PUBLIC "-//W3C//DTD SVG 1.1//EN"
 "http://www.w3.org/Graphics/SVG/1.1/DTD/svg11.dtd">
<!-- Generated by graphviz version 2.48.0 (20210717.1556)
 -->
<!-- Pages: 1 -->
<svg width="1837pt" height="1113pt"
 viewBox="0.00 0.00 1837.34 1113.00" xmlns="http://www.w3.org/2000/svg" xmlns:xlink="http://www.w3.org/1999/xlink">
<g id="graph0" class="graph" transform="scale(1 1) rotate(0) translate(4 1109)">
<polygon fill="white" stroke="transparent" points="-4,4 -4,-1109 1833.34,-1109 1833.34,4 -4,4"/>
<g id="clust1" class="cluster">
<title>cluster&#45;nid&#45;02</title>
<polygon fill="none" stroke="#cccccc" points="38.41,-107 38.41,-177 491.35,-177 491.35,-107 38.41,-107"/>
</g>
<g id="clust2" class="cluster">
<title>cluster&#45;nid&#45;03</title>
<polygon fill="none" stroke="#cccccc" points="38.41,-22 38.41,-92 491.35,-92 491.35,-22 38.41,-22"/>
</g>
<g id="clust5" class="cluster">
<title>cluster&#45;nid&#45;06</title>
<polygon fill="none" stroke="#cccccc" points="8,-283 8,-353 158.35,-353 158.35,-283 8,-283"/>
</g>
<g id="clust6" class="cluster">
<title>cluster&#45;nid&#45;07</title>
<polygon fill="none" stroke="#cccccc" points="1156.81,-1016 1156.81,-1086 1531.81,-1086 1531.81,-1016 1156.81,-1016"/>
</g>
<g id="clust7" class="cluster">
<title>cluster&#45;nid&#45;08</title>
<polygon fill="none" stroke="#cccccc" points="1452.04,-766 1452.04,-836 1821.34,-836 1821.34,-766 1452.04,-766"/>
</g>
<g id="clust8" class="cluster">
<title>cluster&#45;nid&#45;09</title>
<polygon fill="none" stroke="#cccccc" points="1452.04,-408 1452.04,-478 1821.34,-478 1821.34,-408 1452.04,-408"/>
</g>
<g id="clust18" class="cluster">
<title>cluster&#45;nid&#45;12&#45;out</title>
<polygon fill="none" stroke="#cccccc" points="364.35,-919 364.35,-1003 548.35,-1003 548.35,-919 364.35,-919"/>
</g>
<g id="clust20" class="cluster">
<title>cluster&#45;nid&#45;13&#45;out</title>
<polygon fill="none" stroke="#cccccc" points="365.85,-1011 365.85,-1095 546.85,-1095 546.85,-1011 365.85,-1011"/>
</g>
<g id="clust21" class="cluster">
<title>cluster&#45;nid&#45;14&#45;in</title>
<polygon fill="none" stroke="#cccccc" points="756.35,-192 756.35,-276 939.35,-276 939.35,-192 756.35,-192"/>
</g>
<g id="clust27" class="cluster">
<title>cluster&#45;nid&#45;18&#45;out</title>
<polygon fill="none" stroke="#cccccc" points="365.85,-623 365.85,-707 546.85,-707 546.85,-623 365.85,-623"/>
</g>
<g id="clust29" class="cluster">
<title>cluster&#45;nid&#45;19&#45;out</title>
<polygon fill="none" stroke="#cccccc" points="365.85,-508 365.85,-592 546.85,-592 546.85,-508 365.85,-508"/>
</g>
<g id="clust31" class="cluster">
<title>cluster&#45;nid&#45;1a&#45;out</title>
<polygon fill="none" stroke="#cccccc" points="365.85,-371 365.85,-455 546.85,-455 546.85,-371 365.85,-371"/>
</g>
<g id="clust32" class="cluster">
<title>cluster&#45;nid&#45;1b&#45;in</title>
<polygon fill="none" stroke="#cccccc" points="754.35,-8 754.35,-92 1226.81,-92 1226.81,-8 754.35,-8"/>
</g>
<g id="clust33" class="cluster">
<title>cluster&#45;nid&#45;1b&#45;out</title>
<polygon fill="none" stroke="#cccccc" points="48.18,-824 48.18,-908 549.85,-908 549.85,-824 48.18,-824"/>
</g>
<g id="clust36" class="cluster">
<title>cluster&#45;nid&#45;1d&#45;out</title>
<polygon fill="none" stroke="#cccccc" points="358.35,-726 358.35,-810 554.35,-810 554.35,-726 358.35,-726"/>
</g>
<g id="clust37" class="cluster">
<title>cluster&#45;nid&#45;1e&#45;in</title>
<polygon fill="none" stroke="#cccccc" points="363.85,-276 363.85,-360 548.85,-360 548.85,-276 363.85,-276"/>
</g>
<g id="clust41" class="cluster">
<title>cluster&#45;nid&#45;21&#45;in</title>
<polygon fill="none" stroke="#cccccc" points="756.85,-100 756.85,-184 938.85,-184 938.85,-100 756.85,-100"/>
</g>
<g id="clust43" class="cluster">
<title>cluster&#45;nid&#45;22</title>
<polygon fill="none" stroke="#cccccc" points="756.66,-284 756.66,-602 1242.27,-602 1242.27,-284 756.66,-284"/>
</g>
<g id="clust44" class="cluster">
<title>cluster&#45;nid&#45;23</title>
<polygon fill="none" stroke="#cccccc" points="756.66,-610 756.66,-992 1242.27,-992 1242.27,-610 756.66,-610"/>
</g>
<g id="clust45" class="cluster">
<title>cluster&#45;nid&#45;24</title>
<polygon fill="none" stroke="#cccccc" points="785.94,-1005 785.94,-1097 909.76,-1097 909.76,-1005 785.94,-1005"/>
</g>
<!-- nid&#45;02 -->
<g id="node1" class="node">
<title>nid&#45;02</title>
<ellipse fill="none" stroke="blue" cx="83.18" cy="-142" rx="36.54" ry="26.74"/>
<text text-anchor="middle" x="83.18" y="-145.8" font-family="Times,serif" font-size="14.00">0x02</text>
<text text-anchor="middle" x="83.18" y="-130.8" font-family="Times,serif" font-size="14.00">Stereo</text>
</g>
<!-- nid&#45;02&#45;ampout -->
<g id="node2" class="node">
<title>nid&#45;02&#45;ampout</title>
<polygon fill="none" stroke="#0000ff" points="483.35,-142 442.85,-160 442.85,-124 483.35,-142"/>
</g>
<!-- nid&#45;02&#45;&gt;nid&#45;02&#45;ampout -->
<g id="edge1" class="edge">
<title>nid&#45;02&#45;&gt;nid&#45;02&#45;ampout</title>
<path fill="none" stroke="#0000ff" d="M120.1,-142C198,-142 380.08,-142 437.6,-142"/>
<polygon fill="#0000ff" stroke="#0000ff" points="437.77,-143.75 442.77,-142 437.77,-140.25 437.77,-143.75"/>
</g>
<!-- nid&#45;14&#45;in -->
<g id="node17" class="node">
<title>nid&#45;14&#45;in</title>
<polygon fill="none" stroke="green" points="931.35,-268 764.35,-268 764.35,-200 931.35,-200 931.35,-268"/>
<text text-anchor="middle" x="847.85" y="-252.8" font-family="Times,serif" font-size="14.00">0x14</text>
<text text-anchor="middle" x="847.85" y="-237.8" font-family="Times,serif" font-size="14.00">[Fixed] Speaker at Int N/A</text>
<text text-anchor="middle" x="847.85" y="-222.8" font-family="Times,serif" font-size="14.00">Stereo</text>
<text text-anchor="middle" x="847.85" y="-207.8" font-family="Times,serif" font-size="14.00">OUT EAPD Detect</text>
</g>
<!-- nid&#45;02&#45;ampout&#45;&gt;nid&#45;14&#45;in -->
<g id="edge9" class="edge">
<title>nid&#45;02&#45;ampout&#45;&gt;nid&#45;14&#45;in</title>
<path fill="none" stroke="#333333" d="M474.34,-146.01C522.14,-157.3 660.42,-189.96 754.37,-212.16"/>
<polygon fill="#333333" stroke="#333333" points="753.63,-215.58 764.17,-214.47 755.24,-208.77 753.63,-215.58"/>
</g>
<!-- nid&#45;1b&#45;in -->
<g id="node21" class="node">
<title>nid&#45;1b&#45;in</title>
<polygon fill="none" stroke="green" points="933.35,-84 762.35,-84 762.35,-16 933.35,-16 933.35,-84"/>
<text text-anchor="middle" x="847.85" y="-68.8" font-family="Times,serif" font-size="14.00">0x1b</text>
<text text-anchor="middle" x="847.85" y="-53.8" font-family="Times,serif" font-size="14.00">[Jack] Line Out at Ext Rear</text>
<text text-anchor="middle" x="847.85" y="-38.8" font-family="Times,serif" font-size="14.00">Stereo</text>
<text text-anchor="middle" x="847.85" y="-23.8" font-family="Times,serif" font-size="14.00">IN OUT EAPD Detect</text>
</g>
<!-- nid&#45;02&#45;ampout&#45;&gt;nid&#45;1b&#45;in -->
<g id="edge12" class="edge">
<title>nid&#45;02&#45;ampout&#45;&gt;nid&#45;1b&#45;in</title>
<path fill="none" stroke="gray" stroke-dasharray="5,2" d="M474.34,-137.99C521.78,-126.78 658.38,-94.52 752.28,-72.34"/>
<polygon fill="gray" stroke="gray" points="753.15,-75.73 762.08,-70.02 751.54,-68.92 753.15,-75.73"/>
</g>
<!-- nid&#45;21&#45;in -->
<g id="node27" class="node">
<title>nid&#45;21&#45;in</title>
<polygon fill="none" stroke="green" points="930.85,-176 764.85,-176 764.85,-108 930.85,-108 930.85,-176"/>
<text text-anchor="middle" x="847.85" y="-160.8" font-family="Times,serif" font-size="14.00">0x21</text>
<text text-anchor="middle" x="847.85" y="-145.8" font-family="Times,serif" font-size="14.00">[Jack] HP Out at Ext Front</text>
<text text-anchor="middle" x="847.85" y="-130.8" font-family="Times,serif" font-size="14.00">Stereo</text>
<text text-anchor="middle" x="847.85" y="-115.8" font-family="Times,serif" font-size="14.00">OUT HP EAPD Detect</text>
</g>
<!-- nid&#45;02&#45;ampout&#45;&gt;nid&#45;21&#45;in -->
<g id="edge15" class="edge">
<title>nid&#45;02&#45;ampout&#45;&gt;nid&#45;21&#45;in</title>
<path fill="none" stroke="gray" stroke-dasharray="5,2" d="M483.51,-142C538.04,-142 666.12,-142 754.65,-142"/>
<polygon fill="gray" stroke="gray" points="754.7,-145.5 764.7,-142 754.7,-138.5 754.7,-145.5"/>
</g>
<!-- nid&#45;03 -->
<g id="node3" class="node">
<title>nid&#45;03</title>
<ellipse fill="none" stroke="blue" cx="83.18" cy="-57" rx="36.54" ry="26.74"/>
<text text-anchor="middle" x="83.18" y="-60.8" font-family="Times,serif" font-size="14.00">0x03</text>
<text text-anchor="middle" x="83.18" y="-45.8" font-family="Times,serif" font-size="14.00">Stereo</text>
</g>
<!-- nid&#45;03&#45;ampout -->
<g id="node4" class="node">
<title>nid&#45;03&#45;ampout</title>
<polygon fill="none" stroke="#0000ff" points="483.35,-57 442.85,-75 442.85,-39 483.35,-57"/>
</g>
<!-- nid&#45;03&#45;&gt;nid&#45;03&#45;ampout -->
<g id="edge2" class="edge">
<title>nid&#45;03&#45;&gt;nid&#45;03&#45;ampout</title>
<path fill="none" stroke="#0000ff" d="M120.1,-57C198,-57 380.08,-57 437.6,-57"/>
<polygon fill="#0000ff" stroke="#0000ff" points="437.77,-58.75 442.77,-57 437.77,-55.25 437.77,-58.75"/>
</g>
<!-- nid&#45;03&#45;ampout&#45;&gt;nid&#45;1b&#45;in -->
<g id="edge13" class="edge">
<title>nid&#45;03&#45;ampout&#45;&gt;nid&#45;1b&#45;in</title>
<path fill="none" stroke="#333333" d="M482.61,-56.55C536.09,-55.58 663.16,-53.3 752.07,-51.7"/>
<polygon fill="#333333" stroke="#333333" points="752.24,-55.2 762.18,-51.52 752.12,-48.2 752.24,-55.2"/>
</g>
<!-- nid&#45;03&#45;ampout&#45;&gt;nid&#45;21&#45;in -->
<g id="edge16" class="edge">
<title>nid&#45;03&#45;ampout&#45;&gt;nid&#45;21&#45;in</title>
<path fill="none" stroke="#333333" d="M474.84,-60.82C523.12,-71.35 660.82,-101.4 754.44,-121.83"/>
<polygon fill="#333333" stroke="#333333" points="753.98,-125.32 764.49,-124.03 755.47,-118.48 753.98,-125.32"/>
</g>
<!-- nid&#45;06 -->
<g id="node5" class="node">
<title>nid&#45;06</title>
<ellipse fill="none" stroke="blue" cx="83.18" cy="-318" rx="67.35" ry="26.74"/>
<text text-anchor="middle" x="83.18" y="-321.8" font-family="Times,serif" font-size="14.00">0x06</text>
<text text-anchor="middle" x="83.18" y="-306.8" font-family="Times,serif" font-size="14.00">Stereo Digital</text>
</g>
<!-- nid&#45;1e&#45;in -->
<g id="node26" class="node">
<title>nid&#45;1e&#45;in</title>
<polygon fill="none" stroke="green" points="540.85,-352 371.85,-352 371.85,-284 540.85,-284 540.85,-352"/>
<text text-anchor="middle" x="456.35" y="-336.8" font-family="Times,serif" font-size="14.00">0x1e</text>
<text text-anchor="middle" x="456.35" y="-321.8" font-family="Times,serif" font-size="14.00">[N/A] Speaker at Ext Front</text>
<text text-anchor="middle" x="456.35" y="-306.8" font-family="Times,serif" font-size="14.00">Stereo Digital</text>
<text text-anchor="middle" x="456.35" y="-291.8" font-family="Times,serif" font-size="14.00">OUT Detect</text>
</g>
<!-- nid&#45;06&#45;&gt;nid&#45;1e&#45;in -->
<g id="edge14" class="edge">
<title>nid&#45;06&#45;&gt;nid&#45;1e&#45;in</title>
<path fill="none" stroke="#333333" d="M150.53,-318C209.22,-318 295.49,-318 361.29,-318"/>
<polygon fill="#333333" stroke="#333333" points="361.67,-321.5 371.67,-318 361.67,-314.5 361.67,-321.5"/>
</g>
<!-- nid&#45;07 -->
<g id="node6" class="node">
<title>nid&#45;07</title>
<ellipse fill="none" stroke="red" cx="1487.04" cy="-1051" rx="36.54" ry="26.74"/>
<text text-anchor="middle" x="1487.04" y="-1054.8" font-family="Times,serif" font-size="14.00">0x07</text>
<text text-anchor="middle" x="1487.04" y="-1039.8" font-family="Times,serif" font-size="14.00">Stereo</text>
</g>
<!-- nid&#45;07&#45;ampin -->
<g id="node7" class="node">
<title>nid&#45;07&#45;ampin</title>
<polygon fill="none" stroke="#c8c8c8" points="1218.81,-1051 1178.31,-1069 1178.31,-1033 1218.81,-1051"/>
</g>
<!-- nid&#45;07&#45;ampin&#45;&gt;nid&#45;07 -->
<g id="edge3" class="edge">
<title>nid&#45;07&#45;ampin&#45;&gt;nid&#45;07</title>
<path fill="none" stroke="#c8c8c8" d="M1218.83,-1051C1269.95,-1051 1383.85,-1051 1445.13,-1051"/>
<polygon fill="#c8c8c8" stroke="#c8c8c8" points="1445.17,-1052.75 1450.17,-1051 1445.17,-1049.25 1445.17,-1052.75"/>
</g>
<!-- nid&#45;24 -->
<g id="node8" class="node">
<title>nid&#45;24</title>
<polygon fill="none" stroke="black" points="901.67,-1089 816.05,-1089 794.03,-1013 879.65,-1013 901.67,-1089"/>
<text text-anchor="middle" x="847.85" y="-1054.8" font-family="Times,serif" font-size="14.00">0x24</text>
<text text-anchor="middle" x="847.85" y="-1039.8" font-family="Times,serif" font-size="14.00">Stereo</text>
</g>
<!-- nid&#45;24&#45;&gt;nid&#45;07&#45;ampin -->
<g id="edge4" class="edge">
<title>nid&#45;24&#45;&gt;nid&#45;07&#45;ampin</title>
<path fill="none" stroke="#333333" d="M890.78,-1051C963.68,-1051 1111.4,-1051 1168.02,-1051"/>
<polygon fill="#333333" stroke="#333333" points="1168.08,-1054.5 1178.08,-1051 1168.08,-1047.5 1168.08,-1054.5"/>
</g>
<!-- nid&#45;08 -->
<g id="node9" class="node">
<title>nid&#45;08</title>
<ellipse fill="none" stroke="red" cx="1776.57" cy="-801" rx="36.54" ry="26.74"/>
<text text-anchor="middle" x="1776.57" y="-804.8" font-family="Times,serif" font-size="14.00">0x08</text>
<text text-anchor="middle" x="1776.57" y="-789.8" font-family="Times,serif" font-size="14.00">Stereo</text>
</g>
<!-- nid&#45;08&#45;ampin -->
<g id="node10" class="node">
<title>nid&#45;08&#45;ampin</title>
<polygon fill="none" stroke="#7e7edc" points="1514.04,-801 1473.54,-819 1473.54,-783 1514.04,-801"/>
</g>
<!-- nid&#45;08&#45;ampin&#45;&gt;nid&#45;08 -->
<g id="edge5" class="edge">
<title>nid&#45;08&#45;ampin&#45;&gt;nid&#45;08</title>
<path fill="none" stroke="#7e7edc" d="M1514.06,-801C1564.11,-801 1674.16,-801 1734.31,-801"/>
<polygon fill="#7e7edc" stroke="#7e7edc" points="1734.62,-802.75 1739.62,-801 1734.62,-799.25 1734.62,-802.75"/>
</g>
<!-- nid&#45;23 -->
<g id="node11" class="node">
<title>nid&#45;23</title>
<polygon fill="none" stroke="black" points="1234.22,-801 1213.02,-832.05 1170.6,-832.05 1149.39,-801 1170.6,-769.95 1213.02,-769.95 1234.22,-801"/>
<text text-anchor="middle" x="1191.81" y="-804.8" font-family="Times,serif" font-size="14.00">0x23</text>
<text text-anchor="middle" x="1191.81" y="-789.8" font-family="Times,serif" font-size="14.00">Stereo</text>
</g>
<!-- nid&#45;23&#45;&gt;nid&#45;08&#45;ampin -->
<g id="edge6" class="edge">
<title>nid&#45;23&#45;&gt;nid&#45;08&#45;ampin</title>
<path fill="none" stroke="#333333" d="M1234.51,-801C1297.29,-801 1413.97,-801 1463.19,-801"/>
<polygon fill="#333333" stroke="#333333" points="1463.41,-804.5 1473.41,-801 1463.41,-797.5 1463.41,-804.5"/>
</g>
<!-- nid&#45;09 -->
<g id="node12" class="node">
<title>nid&#45;09</title>
<ellipse fill="none" stroke="red" cx="1776.57" cy="-443" rx="36.54" ry="26.74"/>
<text text-anchor="middle" x="1776.57" y="-446.8" font-family="Times,serif" font-size="14.00">0x09</text>
<text text-anchor="middle" x="1776.57" y="-431.8" font-family="Times,serif" font-size="14.00">Stereo</text>
</g>
<!-- nid&#45;09&#45;ampin -->
<g id="node13" class="node">
<title>nid&#45;09&#45;ampin</title>
<polygon fill="none" stroke="#c8c8c8" points="1514.04,-443 1473.54,-461 1473.54,-425 1514.04,-443"/>
</g>
<!-- nid&#45;09&#45;ampin&#45;&gt;nid&#45;09 -->
<g id="edge7" class="edge">
<title>nid&#45;09&#45;ampin&#45;&gt;nid&#45;09</title>
<path fill="none" stroke="#c8c8c8" d="M1514.06,-443C1564.11,-443 1674.16,-443 1734.31,-443"/>
<polygon fill="#c8c8c8" stroke="#c8c8c8" points="1734.62,-444.75 1739.62,-443 1734.62,-441.25 1734.62,-444.75"/>
</g>
<!-- nid&#45;22 -->
<g id="node14" class="node">
<title>nid&#45;22</title>
<polygon fill="none" stroke="black" points="1234.22,-443 1213.02,-474.05 1170.6,-474.05 1149.39,-443 1170.6,-411.95 1213.02,-411.95 1234.22,-443"/>
<text text-anchor="middle" x="1191.81" y="-446.8" font-family="Times,serif" font-size="14.00">0x22</text>
<text text-anchor="middle" x="1191.81" y="-431.8" font-family="Times,serif" font-size="14.00">Stereo</text>
</g>
<!-- nid&#45;22&#45;&gt;nid&#45;09&#45;ampin -->
<g id="edge8" class="edge">
<title>nid&#45;22&#45;&gt;nid&#45;09&#45;ampin</title>
<path fill="none" stroke="#333333" d="M1234.51,-443C1297.29,-443 1413.97,-443 1463.19,-443"/>
<polygon fill="#333333" stroke="#333333" points="1463.41,-446.5 1473.41,-443 1463.41,-439.5 1463.41,-446.5"/>
</g>
<!-- nid&#45;12&#45;out -->
<g id="node15" class="node">
<title>nid&#45;12&#45;out</title>
<polygon fill="none" stroke="green" points="540.35,-995 372.35,-995 372.35,-927 540.35,-927 540.35,-995"/>
<text text-anchor="middle" x="456.35" y="-979.8" font-family="Times,serif" font-size="14.00">0x12</text>
<text text-anchor="middle" x="456.35" y="-964.8" font-family="Times,serif" font-size="14.00">[N/A] Line Out at Ext N/A</text>
<text text-anchor="middle" x="456.35" y="-949.8" font-family="Times,serif" font-size="14.00">Stereo</text>
<text text-anchor="middle" x="456.35" y="-934.8" font-family="Times,serif" font-size="14.00">IN</text>
</g>
<!-- nid&#45;12&#45;out&#45;&gt;nid&#45;24 -->
<g id="edge39" class="edge">
<title>nid&#45;12&#45;out&#45;&gt;nid&#45;24</title>
<path fill="none" stroke="#333333" d="M540.43,-980.2C616.25,-997.72 726.17,-1023.11 791.68,-1038.25"/>
<polygon fill="#333333" stroke="#333333" points="791.27,-1041.75 801.8,-1040.59 792.85,-1034.93 791.27,-1041.75"/>
</g>
<!-- nid&#45;23&#45;ampin&#45;18 -->
<g id="node38" class="node">
<title>nid&#45;23&#45;ampin&#45;18</title>
<polygon fill="none" stroke="#c8c8c8" points="931.24,-961 806.16,-984 806.16,-938 931.24,-961"/>
<text text-anchor="middle" x="847.85" y="-957.3" font-family="Times,serif" font-size="14.00">5 (0x12)</text>
</g>
<!-- nid&#45;12&#45;out&#45;&gt;nid&#45;23&#45;ampin&#45;18 -->
<g id="edge38" class="edge">
<title>nid&#45;12&#45;out&#45;&gt;nid&#45;23&#45;ampin&#45;18</title>
<path fill="none" stroke="#333333" d="M540.43,-961C617.78,-961 730.64,-961 795.61,-961"/>
<polygon fill="#333333" stroke="#333333" points="796,-964.5 806,-961 796,-957.5 796,-964.5"/>
</g>
<!-- nid&#45;13&#45;out -->
<g id="node16" class="node">
<title>nid&#45;13&#45;out</title>
<polygon fill="none" stroke="green" points="538.85,-1087 373.85,-1087 373.85,-1019 538.85,-1019 538.85,-1087"/>
<text text-anchor="middle" x="456.35" y="-1071.8" font-family="Times,serif" font-size="14.00">0x13</text>
<text text-anchor="middle" x="456.35" y="-1056.8" font-family="Times,serif" font-size="14.00">[N/A] Speaker at Ext Rear</text>
<text text-anchor="middle" x="456.35" y="-1041.8" font-family="Times,serif" font-size="14.00">Stereo</text>
<text text-anchor="middle" x="456.35" y="-1026.8" font-family="Times,serif" font-size="14.00">IN</text>
</g>
<!-- nid&#45;13&#45;out&#45;&gt;nid&#45;24 -->
<g id="edge40" class="edge">
<title>nid&#45;13&#45;out&#45;&gt;nid&#45;24</title>
<path fill="none" stroke="gray" stroke-dasharray="5,2" d="M539,-1052.58C616.08,-1052.18 729.32,-1051.6 794.82,-1051.27"/>
<polygon fill="gray" stroke="gray" points="794.93,-1054.77 804.91,-1051.22 794.89,-1047.77 794.93,-1054.77"/>
</g>
<!-- nid&#45;18&#45;out -->
<g id="node18" class="node">
<title>nid&#45;18&#45;out</title>
<polygon fill="none" stroke="green" points="538.85,-699 373.85,-699 373.85,-631 538.85,-631 538.85,-699"/>
<text text-anchor="middle" x="456.35" y="-683.8" font-family="Times,serif" font-size="14.00">0x18</text>
<text text-anchor="middle" x="456.35" y="-668.8" font-family="Times,serif" font-size="14.00">[N/A] Speaker at Ext Rear</text>
<text text-anchor="middle" x="456.35" y="-653.8" font-family="Times,serif" font-size="14.00">Stereo</text>
<text text-anchor="middle" x="456.35" y="-638.8" font-family="Times,serif" font-size="14.00">IN Detect</text>
</g>
<!-- nid&#45;22&#45;ampin&#45;24 -->
<g id="node28" class="node">
<title>nid&#45;22&#45;ampin&#45;24</title>
<polygon fill="none" stroke="#c8c8c8" points="931.24,-443 806.16,-466 806.16,-420 931.24,-443"/>
<text text-anchor="middle" x="847.85" y="-439.3" font-family="Times,serif" font-size="14.00">0 (0x18)</text>
</g>
<!-- nid&#45;18&#45;out&#45;&gt;nid&#45;22&#45;ampin&#45;24 -->
<g id="edge22" class="edge">
<title>nid&#45;18&#45;out&#45;&gt;nid&#45;22&#45;ampin&#45;24</title>
<path fill="none" stroke="#333333" d="M507.52,-630.86C578.43,-582.96 704.84,-498.98 754.35,-475 767.52,-468.62 782.29,-462.91 796.1,-458.15"/>
<polygon fill="#333333" stroke="#333333" points="797.58,-461.34 805.95,-454.85 795.36,-454.71 797.58,-461.34"/>
</g>
<!-- nid&#45;23&#45;ampin&#45;24 -->
<g id="node33" class="node">
<title>nid&#45;23&#45;ampin&#45;24</title>
<polygon fill="none" stroke="#c8c8c8" points="931.24,-769 806.16,-792 806.16,-746 931.24,-769"/>
<text text-anchor="middle" x="847.85" y="-765.3" font-family="Times,serif" font-size="14.00">0 (0x18)</text>
</g>
<!-- nid&#45;18&#45;out&#45;&gt;nid&#45;23&#45;ampin&#45;24 -->
<g id="edge33" class="edge">
<title>nid&#45;18&#45;out&#45;&gt;nid&#45;23&#45;ampin&#45;24</title>
<path fill="none" stroke="#333333" d="M539,-686.8C616.5,-707.49 730.57,-737.95 795.89,-755.39"/>
<polygon fill="#333333" stroke="#333333" points="795.38,-758.88 805.95,-758.08 797.19,-752.12 795.38,-758.88"/>
</g>
<!-- nid&#45;19&#45;out -->
<g id="node19" class="node">
<title>nid&#45;19&#45;out</title>
<polygon fill="none" stroke="green" points="538.85,-584 373.85,-584 373.85,-516 538.85,-516 538.85,-584"/>
<text text-anchor="middle" x="456.35" y="-568.8" font-family="Times,serif" font-size="14.00">0x19</text>
<text text-anchor="middle" x="456.35" y="-553.8" font-family="Times,serif" font-size="14.00">[N/A] Speaker at Ext Rear</text>
<text text-anchor="middle" x="456.35" y="-538.8" font-family="Times,serif" font-size="14.00">Stereo</text>
<text text-anchor="middle" x="456.35" y="-523.8" font-family="Times,serif" font-size="14.00">IN Detect</text>
</g>
<!-- nid&#45;22&#45;ampin&#45;25 -->
<g id="node29" class="node">
<title>nid&#45;22&#45;ampin&#45;25</title>
<polygon fill="none" stroke="#0000ff" points="931.24,-379 806.16,-402 806.16,-356 931.24,-379"/>
<text text-anchor="middle" x="847.85" y="-375.3" font-family="Times,serif" font-size="14.00">1 (0x19)</text>
</g>
<!-- nid&#45;19&#45;out&#45;&gt;nid&#45;22&#45;ampin&#45;25 -->
<g id="edge23" class="edge">
<title>nid&#45;19&#45;out&#45;&gt;nid&#45;22&#45;ampin&#45;25</title>
<path fill="none" stroke="#333333" d="M524.87,-515.92C584.49,-486.43 674.16,-443.53 754.35,-411 767.78,-405.55 782.53,-400.18 796.23,-395.44"/>
<polygon fill="#333333" stroke="#333333" points="797.65,-398.65 805.99,-392.11 795.39,-392.03 797.65,-398.65"/>
</g>
<!-- nid&#45;23&#45;ampin&#45;25 -->
<g id="node34" class="node">
<title>nid&#45;23&#45;ampin&#45;25</title>
<polygon fill="none" stroke="#0000ff" points="931.24,-705 806.16,-728 806.16,-682 931.24,-705"/>
<text text-anchor="middle" x="847.85" y="-701.3" font-family="Times,serif" font-size="14.00">1 (0x19)</text>
</g>
<!-- nid&#45;19&#45;out&#45;&gt;nid&#45;23&#45;ampin&#45;25 -->
<g id="edge34" class="edge">
<title>nid&#45;19&#45;out&#45;&gt;nid&#45;23&#45;ampin&#45;25</title>
<path fill="none" stroke="#333333" d="M535.94,-584.05C595.52,-609.49 679.61,-644.62 754.35,-673 767.9,-678.14 782.69,-683.41 796.39,-688.15"/>
<polygon fill="#333333" stroke="#333333" points="795.54,-691.56 806.14,-691.5 797.82,-684.94 795.54,-691.56"/>
</g>
<!-- nid&#45;1a&#45;out -->
<g id="node20" class="node">
<title>nid&#45;1a&#45;out</title>
<polygon fill="none" stroke="green" points="538.85,-447 373.85,-447 373.85,-379 538.85,-379 538.85,-447"/>
<text text-anchor="middle" x="456.35" y="-431.8" font-family="Times,serif" font-size="14.00">0x1a</text>
<text text-anchor="middle" x="456.35" y="-416.8" font-family="Times,serif" font-size="14.00">[N/A] Speaker at Ext Rear</text>
<text text-anchor="middle" x="456.35" y="-401.8" font-family="Times,serif" font-size="14.00">Stereo</text>
<text text-anchor="middle" x="456.35" y="-386.8" font-family="Times,serif" font-size="14.00">IN Detect</text>
</g>
<!-- nid&#45;22&#45;ampin&#45;26 -->
<g id="node30" class="node">
<title>nid&#45;22&#45;ampin&#45;26</title>
<polygon fill="none" stroke="#c8c8c8" points="931.24,-315 806.16,-338 806.16,-292 931.24,-315"/>
<text text-anchor="middle" x="847.85" y="-311.3" font-family="Times,serif" font-size="14.00">2 (0x1a)</text>
</g>
<!-- nid&#45;1a&#45;out&#45;&gt;nid&#45;22&#45;ampin&#45;26 -->
<g id="edge24" class="edge">
<title>nid&#45;1a&#45;out&#45;&gt;nid&#45;22&#45;ampin&#45;26</title>
<path fill="none" stroke="#333333" d="M539,-392.46C616.5,-372.96 730.57,-344.26 795.89,-327.82"/>
<polygon fill="#333333" stroke="#333333" points="797.1,-331.13 805.95,-325.29 795.39,-324.34 797.1,-331.13"/>
</g>
<!-- nid&#45;23&#45;ampin&#45;26 -->
<g id="node35" class="node">
<title>nid&#45;23&#45;ampin&#45;26</title>
<polygon fill="none" stroke="#c8c8c8" points="931.24,-641 806.16,-664 806.16,-618 931.24,-641"/>
<text text-anchor="middle" x="847.85" y="-637.3" font-family="Times,serif" font-size="14.00">2 (0x1a)</text>
</g>
<!-- nid&#45;1a&#45;out&#45;&gt;nid&#45;23&#45;ampin&#45;26 -->
<g id="edge35" class="edge">
<title>nid&#45;1a&#45;out&#45;&gt;nid&#45;23&#45;ampin&#45;26</title>
<path fill="none" stroke="#333333" d="M503.31,-447.35C560.14,-488.74 660.83,-558.61 754.35,-606 767.67,-612.75 782.61,-618.95 796.53,-624.2"/>
<polygon fill="#333333" stroke="#333333" points="795.38,-627.5 805.98,-627.67 797.8,-620.93 795.38,-627.5"/>
</g>
<!-- nid&#45;1b&#45;ampout -->
<g id="node22" class="node">
<title>nid&#45;1b&#45;ampout</title>
<polygon fill="none" stroke="#0000ff" points="1218.81,-50 1178.31,-68 1178.31,-32 1218.81,-50"/>
</g>
<!-- nid&#45;1b&#45;in&#45;&gt;nid&#45;1b&#45;ampout -->
<g id="edge10" class="edge">
<title>nid&#45;1b&#45;in&#45;&gt;nid&#45;1b&#45;ampout</title>
<path fill="none" stroke="#0000ff" d="M933.38,-50C1013.8,-50 1128.84,-50 1172.8,-50"/>
<polygon fill="#0000ff" stroke="#0000ff" points="1173.04,-51.75 1178.04,-50 1173.04,-48.25 1173.04,-51.75"/>
</g>
<!-- nid&#45;1b&#45;out -->
<g id="node23" class="node">
<title>nid&#45;1b&#45;out</title>
<polygon fill="none" stroke="green" points="541.85,-900 370.85,-900 370.85,-832 541.85,-832 541.85,-900"/>
<text text-anchor="middle" x="456.35" y="-884.8" font-family="Times,serif" font-size="14.00">0x1b</text>
<text text-anchor="middle" x="456.35" y="-869.8" font-family="Times,serif" font-size="14.00">[Jack] Line Out at Ext Rear</text>
<text text-anchor="middle" x="456.35" y="-854.8" font-family="Times,serif" font-size="14.00">Stereo</text>
<text text-anchor="middle" x="456.35" y="-839.8" font-family="Times,serif" font-size="14.00">IN OUT EAPD Detect</text>
</g>
<!-- nid&#45;22&#45;ampin&#45;27 -->
<g id="node31" class="node">
<title>nid&#45;22&#45;ampin&#45;27</title>
<polygon fill="none" stroke="#c8c8c8" points="931.24,-571 806.16,-594 806.16,-548 931.24,-571"/>
<text text-anchor="middle" x="847.85" y="-567.3" font-family="Times,serif" font-size="14.00">3 (0x1b)</text>
</g>
<!-- nid&#45;1b&#45;out&#45;&gt;nid&#45;22&#45;ampin&#45;27 -->
<g id="edge25" class="edge">
<title>nid&#45;1b&#45;out&#45;&gt;nid&#45;22&#45;ampin&#45;27</title>
<path fill="none" stroke="#333333" d="M527.35,-831.91C536.72,-826.37 545.97,-820.35 554.35,-814 656.56,-736.54 647.31,-676.64 754.35,-606 767.04,-597.62 782.02,-590.85 796.19,-585.58"/>
<polygon fill="#333333" stroke="#333333" points="797.57,-588.81 805.83,-582.17 795.23,-582.21 797.57,-588.81"/>
</g>
<!-- nid&#45;23&#45;ampin&#45;27 -->
<g id="node36" class="node">
<title>nid&#45;23&#45;ampin&#45;27</title>
<polygon fill="none" stroke="#c8c8c8" points="931.24,-897 806.16,-920 806.16,-874 931.24,-897"/>
<text text-anchor="middle" x="847.85" y="-893.3" font-family="Times,serif" font-size="14.00">3 (0x1b)</text>
</g>
<!-- nid&#45;1b&#45;out&#45;&gt;nid&#45;23&#45;ampin&#45;27 -->
<g id="edge36" class="edge">
<title>nid&#45;1b&#45;out&#45;&gt;nid&#45;23&#45;ampin&#45;27</title>
<path fill="none" stroke="#333333" d="M541.87,-872.73C619.22,-878.88 731.18,-887.79 795.73,-892.93"/>
<polygon fill="#333333" stroke="#333333" points="795.81,-896.45 806.06,-893.75 796.37,-889.47 795.81,-896.45"/>
</g>
<!-- nid&#45;1b&#45;ampin -->
<g id="node24" class="node">
<title>nid&#45;1b&#45;ampin</title>
<polygon fill="none" stroke="#0000ff" points="110.18,-866 69.68,-884 69.68,-848 110.18,-866"/>
</g>
<!-- nid&#45;1b&#45;ampin&#45;&gt;nid&#45;1b&#45;out -->
<g id="edge11" class="edge">
<title>nid&#45;1b&#45;ampin&#45;&gt;nid&#45;1b&#45;out</title>
<path fill="none" stroke="#0000ff" d="M110.28,-866C162.48,-866 281.93,-866 365.58,-866"/>
<polygon fill="#0000ff" stroke="#0000ff" points="365.79,-867.75 370.79,-866 365.79,-864.25 365.79,-867.75"/>
</g>
<!-- nid&#45;1d&#45;out -->
<g id="node25" class="node">
<title>nid&#45;1d&#45;out</title>
<polygon fill="none" stroke="green" points="546.35,-802 366.35,-802 366.35,-734 546.35,-734 546.35,-802"/>
<text text-anchor="middle" x="456.35" y="-786.8" font-family="Times,serif" font-size="14.00">0x1d</text>
<text text-anchor="middle" x="456.35" y="-771.8" font-family="Times,serif" font-size="14.00">[N/A] SPDIF Out at Ext N/A</text>
<text text-anchor="middle" x="456.35" y="-756.8" font-family="Times,serif" font-size="14.00">Mono</text>
<text text-anchor="middle" x="456.35" y="-741.8" font-family="Times,serif" font-size="14.00">IN</text>
</g>
<!-- nid&#45;22&#45;ampin&#45;29 -->
<g id="node32" class="node">
<title>nid&#45;22&#45;ampin&#45;29</title>
<polygon fill="none" stroke="#c8c8c8" points="931.24,-507 806.16,-530 806.16,-484 931.24,-507"/>
<text text-anchor="middle" x="847.85" y="-503.3" font-family="Times,serif" font-size="14.00">4 (0x1d)</text>
</g>
<!-- nid&#45;1d&#45;out&#45;&gt;nid&#45;22&#45;ampin&#45;29 -->
<g id="edge26" class="edge">
<title>nid&#45;1d&#45;out&#45;&gt;nid&#45;22&#45;ampin&#45;29</title>
<path fill="none" stroke="#333333" d="M519.2,-733.89C531.11,-726.71 543.31,-718.9 554.35,-711 649.72,-642.81 652.71,-597.42 754.35,-539 767.28,-531.57 782.21,-525.47 796.26,-520.67"/>
<polygon fill="#333333" stroke="#333333" points="797.38,-523.98 805.8,-517.55 795.21,-517.33 797.38,-523.98"/>
</g>
<!-- nid&#45;23&#45;ampin&#45;29 -->
<g id="node37" class="node">
<title>nid&#45;23&#45;ampin&#45;29</title>
<polygon fill="none" stroke="#c8c8c8" points="931.24,-833 806.16,-856 806.16,-810 931.24,-833"/>
<text text-anchor="middle" x="847.85" y="-829.3" font-family="Times,serif" font-size="14.00">4 (0x1d)</text>
</g>
<!-- nid&#45;1d&#45;out&#45;&gt;nid&#45;23&#45;ampin&#45;29 -->
<g id="edge37" class="edge">
<title>nid&#45;1d&#45;out&#45;&gt;nid&#45;23&#45;ampin&#45;29</title>
<path fill="none" stroke="#333333" d="M546.71,-782.91C623.94,-795.8 732.81,-813.97 795.99,-824.51"/>
<polygon fill="#333333" stroke="#333333" points="795.66,-828.01 806.1,-826.2 796.81,-821.1 795.66,-828.01"/>
</g>
<!-- nid&#45;22&#45;ampin&#45;24&#45;&gt;nid&#45;22 -->
<g id="edge17" class="edge">
<title>nid&#45;22&#45;ampin&#45;24&#45;&gt;nid&#45;22</title>
<path fill="none" stroke="#c8c8c8" d="M931.19,-443C997.82,-443 1089.26,-443 1143.96,-443"/>
<polygon fill="#c8c8c8" stroke="#c8c8c8" points="1144.13,-444.75 1149.13,-443 1144.13,-441.25 1144.13,-444.75"/>
</g>
<!-- nid&#45;22&#45;ampin&#45;25&#45;&gt;nid&#45;22 -->
<g id="edge18" class="edge">
<title>nid&#45;22&#45;ampin&#45;25&#45;&gt;nid&#45;22</title>
<path fill="none" stroke="#0000ff" d="M889.76,-386.66C955.24,-398.91 1082.93,-422.81 1148.99,-435.17"/>
<polygon fill="#0000ff" stroke="#0000ff" points="1148.78,-436.92 1154.02,-436.11 1149.43,-433.47 1148.78,-436.92"/>
</g>
<!-- nid&#45;22&#45;ampin&#45;26&#45;&gt;nid&#45;22 -->
<g id="edge19" class="edge">
<title>nid&#45;22&#45;ampin&#45;26&#45;&gt;nid&#45;22</title>
<path fill="none" stroke="#c8c8c8" d="M877.45,-324.91C895.29,-331.14 918.7,-339.41 939.35,-347 1015.46,-374.98 1103.94,-409.14 1153.04,-428.24"/>
<polygon fill="#c8c8c8" stroke="#c8c8c8" points="1152.66,-429.98 1157.95,-430.16 1153.93,-426.71 1152.66,-429.98"/>
</g>
<!-- nid&#45;22&#45;ampin&#45;27&#45;&gt;nid&#45;22 -->
<g id="edge20" class="edge">
<title>nid&#45;22&#45;ampin&#45;27&#45;&gt;nid&#45;22</title>
<path fill="none" stroke="#c8c8c8" d="M877.45,-561.09C895.29,-554.86 918.7,-546.59 939.35,-539 1015.46,-511.02 1103.94,-476.86 1153.04,-457.76"/>
<polygon fill="#c8c8c8" stroke="#c8c8c8" points="1153.93,-459.29 1157.95,-455.84 1152.66,-456.02 1153.93,-459.29"/>
</g>
<!-- nid&#45;22&#45;ampin&#45;29&#45;&gt;nid&#45;22 -->
<g id="edge21" class="edge">
<title>nid&#45;22&#45;ampin&#45;29&#45;&gt;nid&#45;22</title>
<path fill="none" stroke="#c8c8c8" d="M889.76,-499.34C955.24,-487.09 1082.93,-463.19 1148.99,-450.83"/>
<polygon fill="#c8c8c8" stroke="#c8c8c8" points="1149.43,-452.53 1154.02,-449.89 1148.78,-449.08 1149.43,-452.53"/>
</g>
<!-- nid&#45;23&#45;ampin&#45;24&#45;&gt;nid&#45;23 -->
<g id="edge27" class="edge">
<title>nid&#45;23&#45;ampin&#45;24&#45;&gt;nid&#45;23</title>
<path fill="none" stroke="#c8c8c8" d="M903.79,-774.14C971.19,-780.45 1084.12,-791.02 1146.33,-796.84"/>
<polygon fill="#c8c8c8" stroke="#c8c8c8" points="1146.32,-798.59 1151.46,-797.32 1146.64,-795.11 1146.32,-798.59"/>
</g>
<!-- nid&#45;23&#45;ampin&#45;25&#45;&gt;nid&#45;23 -->
<g id="edge28" class="edge">
<title>nid&#45;23&#45;ampin&#45;25&#45;&gt;nid&#45;23</title>
<path fill="none" stroke="#0000ff" d="M881.64,-714.2C944.61,-731.88 1082.27,-770.53 1150.63,-789.72"/>
<polygon fill="#0000ff" stroke="#0000ff" points="1150.55,-791.51 1155.83,-791.18 1151.49,-788.14 1150.55,-791.51"/>
</g>
<!-- nid&#45;23&#45;ampin&#45;26&#45;&gt;nid&#45;23 -->
<g id="edge29" class="edge">
<title>nid&#45;23&#45;ampin&#45;26&#45;&gt;nid&#45;23</title>
<path fill="none" stroke="#c8c8c8" d="M879.4,-650.69C897.12,-656.59 919.75,-664.59 939.35,-673 1018.94,-707.15 1108.53,-755.18 1156.35,-781.63"/>
<polygon fill="#c8c8c8" stroke="#c8c8c8" points="1155.62,-783.23 1160.84,-784.12 1157.32,-780.17 1155.62,-783.23"/>
</g>
<!-- nid&#45;23&#45;ampin&#45;27&#45;&gt;nid&#45;23 -->
<g id="edge30" class="edge">
<title>nid&#45;23&#45;ampin&#45;27&#45;&gt;nid&#45;23</title>
<path fill="none" stroke="#c8c8c8" d="M881.64,-887.8C944.61,-870.12 1082.27,-831.47 1150.63,-812.28"/>
<polygon fill="#c8c8c8" stroke="#c8c8c8" points="1151.49,-813.86 1155.83,-810.82 1150.55,-810.49 1151.49,-813.86"/>
</g>
<!-- nid&#45;23&#45;ampin&#45;29&#45;&gt;nid&#45;23 -->
<g id="edge31" class="edge">
<title>nid&#45;23&#45;ampin&#45;29&#45;&gt;nid&#45;23</title>
<path fill="none" stroke="#c8c8c8" d="M903.79,-827.86C971.19,-821.55 1084.12,-810.98 1146.33,-805.16"/>
<polygon fill="#c8c8c8" stroke="#c8c8c8" points="1146.64,-806.89 1151.46,-804.68 1146.32,-803.41 1146.64,-806.89"/>
</g>
<!-- nid&#45;23&#45;ampin&#45;18&#45;&gt;nid&#45;23 -->
<g id="edge32" class="edge">
<title>nid&#45;23&#45;ampin&#45;18&#45;&gt;nid&#45;23</title>
<path fill="none" stroke="#c8c8c8" d="M879.4,-951.31C897.12,-945.41 919.75,-937.41 939.35,-929 1018.94,-894.85 1108.53,-846.82 1156.35,-820.37"/>
<polygon fill="#c8c8c8" stroke="#c8c8c8" points="1157.32,-821.83 1160.84,-817.88 1155.62,-818.77 1157.32,-821.83"/>
</g>
</g>
</svg>
